<?xml version="1.0" encoding="UTF-8" standalone="no"?>
<svg width="428px" height="127px" viewBox="0 0 428 127" version="1.1" xmlns="http://www.w3.org/2000/svg" xmlns:xlink="http://www.w3.org/1999/xlink" xmlns:sketch="http://www.bohemiancoding.com/sketch/ns">
    <!-- Generator: Sketch 3.3.1 (12002) - http://www.bohemiancoding.com/sketch -->
    <title>astronaut-logo-final</title>
    <desc>Created with Sketch.</desc>
    <defs>
        <circle id="path-1" cx="56.6" cy="56.6" r="55.9"></circle>
        <circle id="path-3" cx="56.6" cy="56.6" r="55.9"></circle>
        <circle id="path-5" cx="56.6" cy="56.6" r="55.9"></circle>
    </defs>
    <g id="Page-1" stroke="none" stroke-width="1" fill="none" fill-rule="evenodd" sketch:type="MSPage">
        <g id="astronaut-logo-final" sketch:type="MSLayerGroup" transform="translate(0.000000, 1.000000)">
            <g id="Group" transform="translate(122.000000, 35.000000)" fill="#000000" sketch:type="MSShapeGroup">
                <path d="M18.2,41.6 L3,41.6 C2.2,41.6 1.9,41.3 1.9,40.5 L1.9,39.3 C1.9,38.5 2.2,38.2 3,38.2 L18,38.2 C20.2,38.2 20.5,37.3 20.5,35.8 L20.5,30.8 C20.5,29.2 20.2,28.4 18,28.4 L6.6,28.4 C2.6,28.4 0.7,27.5 0.7,22.7 L0.7,17.7 C0.7,12.9 2.6,12 6.6,12 L21.7,12 C22.5,12 22.8,12.3 22.8,13.1 L22.8,14.3 C22.8,15.1 22.5,15.4 21.7,15.4 L6.7,15.4 C4.5,15.4 4.2,16.3 4.2,17.8 L4.2,22.6 C4.2,24.1 4.5,25 6.5,25 L18.1,25 C22.1,25 24,25.9 24,30.7 L24,35.8 C24.2,40.7 22.3,41.6 18.2,41.6 L18.2,41.6 Z" id="Shape"></path>
                <path d="M53.3,40.5 C53.3,41.3 53,41.6 52.2,41.6 L35.5,41.6 C31.5,41.6 29.6,40.7 29.6,35.9 L29.6,17.7 C29.6,12.9 31.5,12 35.5,12 L48.6,12 C52.6,12 54.5,12.9 54.5,17.7 L54.5,24.4 C54.5,29.2 52.6,30.1 48.6,30.1 L33.3,30.1 L33.3,35.8 C33.3,38.2 34.1,38.2 38.5,38.2 L52.3,38.2 C53.1,38.2 53.4,38.5 53.4,39.3 L53.4,40.5 L53.3,40.5 Z M50.9,24.4 L50.9,17.8 C50.9,16.2 50.6,15.4 48.4,15.4 L35.7,15.4 C33.5,15.4 33.2,16.3 33.2,17.8 L33.2,26.8 L48.4,26.8 C50.5,26.8 50.9,26 50.9,24.4 L50.9,24.4 Z" id="Shape"></path>
                <path d="M82.1,40.5 C82.1,41.3 81.8,41.6 81,41.6 L65.9,41.6 C61.9,41.6 60,40.7 60,35.9 L60,17.7 C60,12.9 61.9,12 65.9,12 L81,12 C81.8,12 82.1,12.3 82.1,13.1 L82.1,14.3 C82.1,15.1 81.8,15.4 81,15.4 L66.1,15.4 C63.9,15.4 63.6,16.3 63.6,17.8 L63.6,35.8 C63.6,37.4 63.9,38.2 66.1,38.2 L81,38.2 C81.8,38.2 82.1,38.5 82.1,39.3 L82.1,40.5 L82.1,40.5 Z" id="Shape"></path>
                <path d="M106,41.6 L92.9,41.6 C88.9,41.6 87,40.7 87,35.9 L87,13.1 C87,12.3 87.3,12 88.1,12 L89.6,12 C90.4,12 90.7,12.3 90.7,13.1 L90.7,35.9 C90.7,37.5 91,38.3 93.2,38.3 L105.9,38.3 C108.1,38.3 108.4,37.4 108.4,35.9 L108.4,13.1 C108.4,12.3 108.7,12 109.5,12 L111,12 C111.8,12 112.1,12.3 112.1,13.1 L112.1,35.9 C111.9,40.7 110,41.6 106,41.6 L106,41.6 Z" id="Shape"></path>
                <path d="M122,40.5 C122,41.3 121.7,41.6 120.9,41.6 L119.4,41.6 C118.6,41.6 118.3,41.3 118.3,40.5 L118.3,17.7 C118.3,12.9 120.2,12 124.2,12 L135.2,12 C136,12 136.3,12.3 136.3,13.1 L136.3,14.3 C136.3,15.1 136,15.4 135.2,15.4 L124.4,15.4 C122.2,15.4 121.9,16.3 121.9,17.8 L121.9,40.5 L122,40.5 Z" id="Shape"></path>
                <path d="M159,41.6 L145.9,41.6 C141.9,41.6 140,40.7 140,35.9 L140,17.7 C140,12.9 141.9,12 145.9,12 L159,12 C163,12 164.9,12.9 164.9,17.7 L164.9,35.9 C164.9,40.7 163,41.6 159,41.6 L159,41.6 Z M161.3,35.9 L161.3,17.9 C161.3,16.3 161,15.5 158.8,15.5 L146.1,15.5 C143.9,15.5 143.6,16.4 143.6,17.9 L143.6,35.9 C143.6,37.5 143.9,38.3 146.1,38.3 L158.8,38.3 C160.9,38.3 161.3,37.4 161.3,35.9 L161.3,35.9 Z" id="Shape"></path>
                <path d="M196.1,40.5 C196.1,41.3 195.8,41.6 195,41.6 L193.5,41.6 C192.7,41.6 192.4,41.3 192.4,40.5 L192.4,17.8 C192.4,16.2 192.1,15.4 189.9,15.4 L177.2,15.4 C175,15.4 174.7,16.3 174.7,17.8 L174.7,40.5 C174.7,41.3 174.4,41.6 173.6,41.6 L172.1,41.6 C171.3,41.6 171,41.3 171,40.5 L171,17.7 C171,12.9 172.9,12 176.9,12 L190,12 C194,12 195.9,12.9 195.9,17.7 L195.9,40.5 L196.1,40.5 Z" id="Shape"></path>
                <path d="M220.9,41.6 L207.8,41.6 C203.8,41.6 201.9,40.7 201.9,35.9 L201.9,28.8 C201.9,24 203.8,23.1 207.8,23.1 L223.2,23.1 L223.2,17.8 C223.2,16.2 222.9,15.4 220.7,15.4 L203.5,15.4 C202.7,15.4 202.4,15.1 202.4,14.3 L202.4,13.1 C202.4,12.3 202.7,12 203.5,12 L220.8,12 C224.8,12 226.7,12.9 226.7,17.7 L226.7,35.9 C226.8,40.7 224.9,41.6 220.9,41.6 L220.9,41.6 Z M223.2,35.9 L223.2,26.5 L208,26.5 C205.8,26.5 205.5,27.4 205.5,28.9 L205.5,35.8 C205.5,37.4 205.8,38.2 208,38.2 L220.7,38.2 C222.9,38.3 223.2,37.4 223.2,35.9 L223.2,35.9 Z" id="Shape"></path>
                <path d="M252.1,41.6 L239,41.6 C235,41.6 233.1,40.7 233.1,35.9 L233.1,13.1 C233.1,12.3 233.4,12 234.2,12 L235.7,12 C236.5,12 236.8,12.3 236.8,13.1 L236.8,35.9 C236.8,37.5 237.1,38.3 239.3,38.3 L252,38.3 C254.2,38.3 254.5,37.4 254.5,35.9 L254.5,13.1 C254.5,12.3 254.8,12 255.6,12 L257.1,12 C257.9,12 258.2,12.3 258.2,13.1 L258.2,35.9 C258.1,40.7 256.2,41.6 252.1,41.6 L252.1,41.6 Z" id="Shape"></path>
                <path d="M278.8,40.5 C278.8,41.3 278.5,41.6 277.7,41.6 L273,41.6 C269,41.6 267.1,40.7 267.1,35.9 L267.1,15.4 L263.3,15.4 C262.5,15.4 262.2,15.1 262.2,14.3 L262.2,13.1 C262.2,12.3 262.5,12 263.3,12 L267.1,12 L267.1,2 C267.1,1.2 267.4,0.9 268.2,0.9 L269.7,0.9 C270.5,0.9 270.8,1.2 270.8,2 L270.8,12 L277.7,12 C278.5,12 278.8,12.3 278.8,13.1 L278.8,14.3 C278.8,15.1 278.5,15.4 277.7,15.4 L270.8,15.4 L270.8,35.8 C270.8,37.4 271.1,38.2 273.3,38.2 L277.8,38.2 C278.6,38.2 278.9,38.5 278.9,39.3 L278.9,40.5 L278.8,40.5 Z" id="Shape"></path>
                <path d="M299.3,41.6 L284.1,41.6 C283.3,41.6 283,41.3 283,40.5 L283,39.3 C283,38.5 283.3,38.2 284.1,38.2 L299.1,38.2 C301.3,38.2 301.6,37.3 301.6,35.8 L301.6,30.8 C301.6,29.2 301.3,28.4 299.1,28.4 L287.7,28.4 C283.7,28.4 281.8,27.5 281.8,22.7 L281.8,17.7 C281.8,12.9 283.7,12 287.7,12 L302.8,12 C303.6,12 303.9,12.3 303.9,13.1 L303.9,14.3 C303.9,15.1 303.6,15.4 302.8,15.4 L287.8,15.4 C285.6,15.4 285.3,16.3 285.3,17.8 L285.3,22.6 C285.3,24.1 285.6,25 287.6,25 L299.2,25 C303.2,25 305.1,25.9 305.1,30.7 L305.1,35.8 C305.2,40.7 303.4,41.6 299.3,41.6 L299.3,41.6 Z" id="Shape"></path>
            </g>
            <g id="Group">
                <circle id="Oval" stroke="#231F20" fill="#CCCCCC" sketch:type="MSShapeGroup" cx="56.6" cy="69.6" r="55.9"></circle>
                <g transform="translate(0.000000, 13.000000)">
                    <g id="Clipped">
                        <mask id="mask-2" sketch:name="SVGID_1_" fill="white">
                            <use xlink:href="#path-1"></use>
                        </mask>
                        <g id="SVGID_1_"></g>
                        <path d="M79.5,107.9 C75.3,106.5 76.3,104.8 75.4,103 C72.8,97.6 82,72 94.4,73.3 C106.8,74.6 123.5,104.5 119.8,110.7 C116.2,116.9 117.9,127.3 117.9,127.3 L79.5,107.9 L79.5,107.9 Z" id="Shape" stroke="#000000" stroke-width="0.6825" fill="#FFFFFF" sketch:type="MSShapeGroup" mask="url(#mask-2)"></path>
                    </g>
                    <g id="chest_2_-Clipped">
                        <mask id="mask-4" sketch:name="SVGID_1_" fill="white">
                            <use xlink:href="#path-3"></use>
                        </mask>
                        <g id="SVGID_1_"></g>
                        <path d="M89,75.8 C99.3,83.6 118.3,94.9 116.1,125 C113.9,155.1 36.2,150.6 32.8,143.9 C29.4,137.3 41.8,99.7 32.8,93.8 C23.8,87.9 25.8,78.5 27.1,78.2 C28.4,78 89,75.8 89,75.8 L89,75.8 Z" id="chest_2_" stroke="#231F20" stroke-width="0.4407" fill="#FFFFFF" sketch:type="MSShapeGroup" mask="url(#mask-4)"></path>
                    </g>
                    <g id="Clipped">
                        <mask id="mask-6" sketch:name="SVGID_1_" fill="white">
                            <use xlink:href="#path-5"></use>
                        </mask>
                        <g id="SVGID_1_"></g>
                        <path d="M0.4,106.9 C-3.1,104.2 -1.6,102.9 -1.8,100.9 C-2.5,95 14.8,73.9 26,79.3 C37.2,84.7 42.9,118.4 37.4,123.1 C31.9,127.7 30.1,138.1 30.1,138.1 L0.4,106.9 L0.4,106.9 Z" id="Shape" stroke="#000000" stroke-width="0.6825" fill="#FFFFFF" sketch:type="MSShapeGroup" mask="url(#mask-6)"></path>
                    </g>
                </g>
                <path d="M86.8,79.3 C84,86.2 72.3,92.3 57.2,92.3 C43.5,92.3 33.1,86.3 28.5,82 C28.1,82.9 27.1,85.7 27.1,86.7 C27.1,94.9 41,101.6 58.1,101.6 C75.2,101.6 89.1,94.9 89.1,86.7 C89,85 87.8,80.8 86.8,79.3 L86.8,79.3 Z" id="Shape" stroke="#000000" stroke-width="0.6825" fill="#FFFFFF" sketch:type="MSShapeGroup"></path>
                <path d="M93,37.6 C97.6,69.3 87.7,88.1 65.2,91.7 C42.7,95.3 15.6,80.2 11.3,53.7 C7,27.2 21.9,4.2 44.4,0.6 C66.9,-3 89.2,11.1 93,37.6 L93,37.6 Z" id="Shape" stroke="#000000" fill="#FFFFFF" sketch:type="MSShapeGroup"></path>
                <path d="M91.1,46.2 C92.1,60 91.7,77.9 73.5,79.4 C45,81.6 33.1,80.5 30.2,48 C28.5,29.6 45.8,21.7 63.5,18.3 C90,13.1 90.3,35.5 91.1,46.2 L91.1,46.2 Z" id="Shape" fill="#000000" sketch:type="MSShapeGroup"></path>
                <ellipse id="Oval" fill="#000000" sketch:type="MSShapeGroup" transform="translate(17.889480, 57.896180) rotate(-15.041037) translate(-17.889480, -57.896180) " cx="17.88948" cy="57.89618" rx="4.89979601" ry="12.5994755"></ellipse>
                <ellipse id="Oval" stroke="#000000" stroke-width="0.5" fill="#FFFFFF" sketch:type="MSShapeGroup" transform="translate(16.707840, 56.705140) rotate(-15.041037) translate(-16.707840, -56.705140) " cx="16.70784" cy="56.70514" rx="4.69980433" ry="12.1994921"></ellipse>
                <path d="M7.8,12.7 C7.8,12.7 -1.9,59.4 14.9,59.2 C19.7,59.2 18.8,54.5 15.1,53.6 C6.5,51.7 7.8,12.7 7.8,12.7 L7.8,12.7 Z" id="Shape" stroke="#000000" stroke-width="0.4407" fill="#FFFFFF" sketch:type="MSShapeGroup"></path>
                <circle id="Oval" stroke="#000000" stroke-width="0.4407" fill="#FFFFFF" sketch:type="MSShapeGroup" cx="7.6" cy="14.7" r="3"></circle>
            </g>
        </g>
    </g>
</svg>